<svg xmlns="http://www.w3.org/2000/svg" viewBox="0 0 64 64">
  <defs>
    <linearGradient id="bg" x1="8" y1="8" x2="56" y2="56" gradientUnits="userSpaceOnUse">
      <stop offset="0" stop-color="#fff8e8"/>
      <stop offset="1" stop-color="#ffd08a"/>
    </linearGradient>
    <linearGradient id="sea" x1="16" y1="36" x2="50" y2="52" gradientUnits="userSpaceOnUse">
      <stop offset="0" stop-color="#2aa6ff"/>
      <stop offset="1" stop-color="#0b63c9"/>
    </linearGradient>
    <linearGradient id="cat" x1="18" y1="10" x2="46" y2="44" gradientUnits="userSpaceOnUse">
      <stop offset="0" stop-color="#3a2a1c"/>
      <stop offset="1" stop-color="#111111"/>
    </linearGradient>
  </defs>
  <rect x="4" y="4" width="56" height="56" rx="16" fill="url(#bg)"/>
  <path d="M49 17c-4.4-5.1-10.8-8-17.4-8-12.3 0-22.3 10-22.3 22.3s10 22.3 22.3 22.3c6.6 0 13-2.9 17.4-8" fill="none" stroke="url(#cat)" stroke-linecap="round" stroke-width="7"/>
  <path d="M36 11l-3.7 6.4-5.3-4.2-1.1 7.1" fill="none" stroke="url(#cat)" stroke-linecap="round" stroke-linejoin="round" stroke-width="4.1"/>
  <circle cx="39.6" cy="25.8" r="2.1" fill="#f4d7b8"/>
  <path d="M17 41c3.6-2.1 6.8-3.2 10.5-3.2 4.1 0 7 1.2 10.2 2.7 2.8 1.3 5.4 2.1 8.5 2.1" fill="none" stroke="url(#sea)" stroke-linecap="round" stroke-width="4"/>
  <path d="M17 47c3.4-2.1 6.3-3 9.7-3 3.9 0 6.7 1.1 9.9 2.6 2.8 1.3 5.5 2.1 8.7 2.1" fill="none" opacity=".8" stroke="url(#sea)" stroke-linecap="round" stroke-width="3.6"/>
</svg>
